<svg width="1000" height="1000" viewBox="0 0 1000 1000" fill="none" xmlns="http://www.w3.org/2000/svg">
<rect width="1000" height="1000" rx="333.333" fill="white"/>
<path d="M689.012 726.727C711.349 726.727 729.457 708.619 729.457 686.283V599.879C729.457 594.164 724.827 589.534 719.115 589.534H640.16C619.859 589.534 603.4 573.079 603.399 552.778V519.773C603.399 499.473 619.859 483.015 640.16 483.015H719.115C724.827 483.015 729.457 478.384 729.457 472.673V386.269C729.457 363.931 711.349 345.824 689.012 345.824H266.444C244.108 345.824 226 363.931 226 386.269V686.283C226 708.618 244.108 726.726 266.444 726.727H689.012ZM461.008 638.316C447.945 638.316 435.894 635.924 424.854 631.141C414 626.173 405.076 619.182 398.085 610.167L422.923 580.361C428.258 587.353 433.87 592.688 439.758 596.368C445.645 599.864 451.993 601.611 458.8 601.611C477.014 601.611 486.122 590.94 486.122 569.598V477.697H418.231V441.82H530.555V567.114C530.555 591.032 524.667 608.879 512.892 620.654C501.117 632.429 483.822 638.316 461.008 638.316Z" fill="url(#paint0_linear_1466_146)"/>
<path d="M653.927 552.558C644.929 552.558 637.638 545.268 637.638 536.275C637.638 527.282 644.929 519.989 653.927 519.989C662.917 519.989 670.207 527.282 670.207 536.275C670.207 545.268 662.917 552.558 653.927 552.558ZM731.121 493.152H640.3C625.521 493.152 613.539 505.132 613.539 519.914V552.635C613.539 567.414 625.521 579.395 640.3 579.395H731.121C740.111 579.395 747.397 572.108 747.397 563.119V509.428C747.397 500.438 740.111 493.152 731.121 493.152Z" fill="url(#paint1_linear_1466_146)"/>
<path d="M634.752 264.058L337.113 336.68H661.129V284.772C661.129 270.953 648.179 260.781 634.752 264.058Z" fill="#38613C"/>
<path d="M591.545 264.166L294.332 336.684L550.143 205.92C562.409 199.546 577.403 206.35 580.684 219.776L591.545 264.166Z" fill="#ABE97E"/>
<defs>
<linearGradient id="paint0_linear_1466_146" x1="226" y1="253.074" x2="577.024" y2="801.271" gradientUnits="userSpaceOnUse">
<stop stop-color="#0F3D29"/>
<stop offset="1" stop-color="#B2F082"/>
</linearGradient>
<linearGradient id="paint1_linear_1466_146" x1="613.539" y1="472.151" x2="687.099" y2="607.053" gradientUnits="userSpaceOnUse">
<stop stop-color="#0F3D29"/>
<stop offset="1" stop-color="#B2F082"/>
</linearGradient>
</defs>
</svg>
